<?xml version="1.0" encoding="UTF-8"?>
<!-- Created with Inkscape (http://www.inkscape.org/) -->
<svg width="640" height="640" version="1.1" viewBox="0 0 169.33 169.33" xmlns="http://www.w3.org/2000/svg">
 <g>
  <path d="m78.84 8.4577a77.02 77.02 0 0 1 83.084 69.866 77.02 77.02 0 0 1-69.305 83.553 77.02 77.02 0 0 1-84.017-68.741 77.02 77.02 0 0 1 68.174-84.478" fill="#fff" stroke="#fff" stroke-linecap="square" stroke-linejoin="round" stroke-width="7.5591" style="paint-order:stroke fill markers"/>
 </g>
 <g opacity=".5" style="mix-blend-mode:normal">
  <path d="m62.652 47.788c-10.957 0.23706-21.622 6.4442-27.07 15.984-4.6942 7.9528-5.7857 17.96-2.7434 26.698 6.6034 19.924 13.334 39.811 19.885 59.753 0.23697 1.4749 1.0514 3.2559 2.7447 3.39 1.9144 0.046 3.5346-1.1698 5.356-1.5717 19.581-6.5103 39.186-12.95 58.741-19.537 9.7133-3.7146 17.263-12.447 19.673-22.548 2.3479-9.4949 0.0821-20.004-6.0259-27.652-5.695-7.236-14.569-11.884-23.785-12.293-4.893-0.26299-9.8174 0.65969-14.354 2.4698-1.4286-4.6623-3.4366-9.2306-6.6273-12.969-6.2242-7.5431-16.002-12.049-25.793-11.725zm0.64668 9.8227c7.6312-0.11439 15.034 3.9204 19.175 10.335 2.8305 4.4002 3.5679 9.6412 5.6889 14.372 0.67362 1.4159 2.4602 2.3396 3.9443 1.5841 2.1615-0.9833 4.4637-1.5788 6.6922-2.3883 3.4966-1.2339 7.2108-2.0687 10.936-1.6646 7.4516 0.65784 14.473 5.2128 17.925 11.88 2.0055 3.7252 2.9227 8.2231 2.6053 12.308-0.48748 6.1346-3.4864 11.939-8.2575 15.845-3.2637 2.8102-7.463 4.0622-11.481 5.3649-16.745 5.5479-33.489 11.1-50.232 16.654-6.2017-18.617-12.469-37.213-18.593-55.855-2.1211-7.5754 0.16841-16.154 5.7184-21.717 4.1421-4.1985 9.977-6.6809 15.878-6.718z" fill="#755aac" opacity=".75" style="paint-order:stroke fill markers"/>
 </g>
 <g opacity=".5" style="mix-blend-mode:normal">
  <path d="m71.456 15.233c-10.884 0.23748-21.483 6.3577-26.958 15.797-4.7835 7.9829-5.923 18.078-2.8544 26.885 6.6055 19.923 13.335 39.813 19.886 59.755 0.24361 1.4502 1.0128 3.1889 2.6605 3.3858 1.9112 0.0926 3.522-1.1374 5.3333-1.535 19.616-6.5195 39.255-12.975 58.845-19.57 9.6842-3.7071 17.224-12.4 19.653-22.468 2.4283-9.7053 0.0295-20.491-6.3796-28.19-5.7441-7.049-14.548-11.51-23.649-11.846-4.8075-0.2331-9.6173 0.71075-14.087 2.4537-0.81669-2.3241-1.6497-4.7989-2.793-7.049-4.7864-9.6262-14.74-16.353-25.404-17.458-1.4112-0.15591-2.834-0.20394-4.2533-0.16097zm0.66387 9.8205c7.789-0.10395 15.291 4.0783 19.388 10.702 2.6907 4.349 3.3963 9.5471 5.5343 14.139 0.70677 1.35 2.4462 2.1819 3.8775 1.4449 2.2974-1.0122 4.7213-1.6825 7.0866-2.5172 3.0954-1.0419 6.3876-1.8351 9.745-1.586 5.9877 0.33804 11.743 3.0913 15.723 7.6143 6.1355 6.8235 7.4364 17.409 3.0433 25.447-2.4865 4.7647-6.7442 8.6639-11.747 10.522-3.3593 1.2796-6.9204 2.2812-10.353 3.4925-15.106 5.0108-30.212 10.022-45.318 15.032-6.2039-18.626-12.476-37.23-18.601-55.881-1.9478-6.9956-0.12959-14.912 4.5392-20.386 2.4055-2.8582 5.6744-5.1854 9.1867-6.5312 2.5315-0.96715 5.1641-1.435 7.8934-1.4932z" fill="#52358d" opacity=".75" stroke="#fff" stroke-width="2.2" style="paint-order:stroke fill markers"/>
 </g>
 <g>
  <path d="m47.607 143.23c-4.6632-1.6916-8.4464-5.147-10.65-9.7267-5.9168-12.298 1.9455-29.447 20.264-44.198 4.5454-3.6602 11.639-8.4704 16.902-11.462 1.9039-1.0821 3.4616-2.1029 3.4616-2.2684s-1.3893-1.0191-3.0874-1.8966c-5.233-2.7045-8.4382-6.8107-9.6557-12.37-1.1776-5.3771 2.2813-15.113 8.1475-22.933 6.4182-8.5562 15.502-15.607 23.221-18.023 9.4857-2.969 17.976 1.9962 19.06 11.146 0.46886 3.9588-2.0109 10.626-5.8303 15.676-1.014 1.3406-3.3698 3.9088-5.2352 5.707-2.9023 2.7978-3.5743 3.2695-4.6582 3.2695-1.9024 0-4.0664-1.7474-5.0791-4.1015-0.76838-1.7862-0.79-2.0184-0.26271-2.8232 0.31601-0.48228 1.8133-1.8092 3.3273-2.9487 4.3399-3.2663 8.3404-7.6879 9.8701-10.909 1.7246-3.6315 1.9428-5.2789 0.87795-6.6297-0.70564-0.89516-1.0739-1.0291-2.8292-1.0291-3.6873 0-6.9362 1.5908-12.523 6.1315-9.3179 7.5738-16.89 16.726-18.722 22.63-0.87348 2.8147-0.96709 6.7587-0.19582 8.2502 1.4844 2.8704 5.2328 4.6764 10.979 5.2896 1.9992 0.21333 4.107 0.57429 4.6838 0.80213 1.6393 0.64747 2.6613 2.9776 2.6788 6.1076 0.02475 4.435-1.5775 6.4289-6.5252 8.1201-3.3443 1.1431-7.1746 3.0794-11.882 6.0068-16.411 10.205-29.154 24.157-31.191 34.151-0.81116 3.9804 0.36162 7.6503 3.0278 9.4747 1.2219 0.83606 1.5519 0.88094 5.2335 0.71174 3.3776-0.15525 4.4286-0.37366 7.4845-1.5556 9.4863-3.6688 21.88-11.88 32.396-21.463 6.1749-5.6272 14.156-13.995 18.382-19.273 3.8435-4.8006 4.4128-5.113 5.8344-3.2015 1.0841 1.4576 0.65317 2.9546-2.2096 7.6761-11.051 18.227-28.928 35.992-42.838 42.571-5.6902 2.6912-9.4367 3.6396-15.12 3.8276-4.4285 0.14649-5.0867 0.0804-7.3373-0.73596z" fill="#52358d" stroke="#fff" stroke-width="1.364"/>
 </g>
</svg>
